<svg width="37" height="38" viewBox="0 0 37 38" fill="none" xmlns="http://www.w3.org/2000/svg">
<g id="Book_open">
<path id="Vector 58" d="M6.625 26.9166H13.75C15.383 26.9166 16.1995 26.9166 16.8269 27.226C17.4192 27.5181 17.8985 27.9974 18.1906 28.5897C18.5 29.2171 18.5 30.0336 18.5 31.6666V12.3333C18.5 9.50482 18.5 8.09061 17.6213 7.21193C16.7426 6.33325 15.3284 6.33325 12.5 6.33325H6.625C5.68219 6.33325 5.21079 6.33325 4.91789 6.62615C4.625 6.91904 4.625 7.39044 4.625 8.33325V24.9166C4.625 25.8594 4.625 26.3308 4.91789 26.6237C5.21079 26.9166 5.68219 26.9166 6.625 26.9166Z" stroke="#02195B" stroke-width="2"/>
<path id="Vector 59" d="M30.375 26.9166H23.25C21.617 26.9166 20.8005 26.9166 20.1731 27.226C19.5808 27.5181 19.1015 27.9974 18.8094 28.5897C18.5 29.2171 18.5 30.0336 18.5 31.6666V12.3333C18.5 9.50482 18.5 8.09061 19.3787 7.21193C20.2574 6.33325 21.6716 6.33325 24.5 6.33325H30.375C31.3178 6.33325 31.7892 6.33325 32.0821 6.62615C32.375 6.91904 32.375 7.39044 32.375 8.33325V24.9166C32.375 25.8594 32.375 26.3308 32.0821 26.6237C31.7892 26.9166 31.3178 26.9166 30.375 26.9166Z" stroke="#02195B" stroke-width="2"/>
</g>
</svg>
