<svg width="21" height="21" viewBox="0 0 21 21" fill="none" xmlns="http://www.w3.org/2000/svg">
<g id="Bug_light">
<path id="Rectangle 3988" d="M6.125 12.5417C6.125 11.6879 6.125 11.2611 6.25319 10.9205C6.45606 10.3815 6.88147 9.95606 7.4205 9.75319C7.76109 9.625 8.18795 9.625 9.04167 9.625H11.9583C12.8121 9.625 13.2389 9.625 13.5795 9.75319C14.1185 9.95606 14.5439 10.3815 14.7468 10.9205C14.875 11.2611 14.875 11.6879 14.875 12.5417V14C14.875 14.3482 14.875 14.5223 14.8642 14.6693C14.7183 16.6463 13.1463 18.2183 11.1693 18.3642C11.0223 18.375 10.8482 18.375 10.5 18.375V18.375C10.1518 18.375 9.97767 18.375 9.83074 18.3642C7.85366 18.2183 6.28168 16.6463 6.13584 14.6693C6.125 14.5223 6.125 14.3482 6.125 14V12.5417Z" stroke="#0038E2" stroke-width="1.5"/>
<path id="Rectangle 3989" d="M7.875 7.875C7.875 7.29388 7.875 7.00332 7.93494 6.76404C8.11425 6.04819 8.67319 5.48925 9.38904 5.30994C9.62832 5.25 9.91888 5.25 10.5 5.25V5.25C11.0811 5.25 11.3717 5.25 11.611 5.30994C12.3268 5.48925 12.8858 6.04819 13.0651 6.76404C13.125 7.00332 13.125 7.29388 13.125 7.875V9.625H7.875V7.875Z" stroke="#0038E2" stroke-width="1.5"/>
<path id="Vector 194" d="M10.5 9.625V13.125" stroke="#0038E2" stroke-width="1.5"/>
<path id="Vector 201" d="M13.125 2.625L11.375 5.25" stroke="#0038E2" stroke-width="1.5"/>
<path id="Vector 202" d="M7.875 2.625L9.625 5.25" stroke="#0038E2" stroke-width="1.5"/>
<path id="Vector 195" d="M6.125 14H1.75" stroke="#0038E2" stroke-width="1.5"/>
<path id="Vector 196" d="M19.25 14H14.875" stroke="#0038E2" stroke-width="1.5"/>
<path id="Vector 197" d="M17.5 7.875V8.75C17.5 10.1997 16.3247 11.375 14.875 11.375V11.375" stroke="#0038E2" stroke-width="1.5"/>
<path id="Vector 199" d="M17.5 19.25V19.25C17.5 17.8003 16.3247 16.625 14.875 16.625V16.625" stroke="#0038E2" stroke-width="1.5"/>
<path id="Vector 198" d="M3.5 7.875V8.75C3.5 10.1997 4.67525 11.375 6.125 11.375V11.375" stroke="#0038E2" stroke-width="1.5"/>
<path id="Vector 200" d="M3.5 19.25V19.25C3.5 17.8003 4.67525 16.625 6.125 16.625V16.625" stroke="#0038E2" stroke-width="1.5"/>
</g>
</svg>
