<svg width="30" height="30" viewBox="0 0 30 30" fill="none" xmlns="http://www.w3.org/2000/svg">
<g id="Chield">
<path id="Vector 4" d="M14.4033 2.92871C14.8563 2.78712 15.3478 2.8113 15.7881 3L23.4619 6.28906L23.6104 6.35938C24.2828 6.71517 24.6961 7.42406 24.6738 8.18457L24.6621 8.34766L23.7607 16.46C23.5735 18.1447 22.7818 19.7002 21.5391 20.8418L21.2852 21.0645L16.2803 25.2344C15.585 25.8138 14.5945 25.8507 13.8623 25.3438L13.7197 25.2344L8.71484 21.0645C7.41279 19.9793 6.55221 18.461 6.28516 16.7949L6.23926 16.46L5.33789 8.34766C5.24065 7.47195 5.72825 6.63617 6.53809 6.28906L14.2119 3L14.4033 2.92871Z" stroke="#33363F" stroke-width="2" stroke-linecap="round"/>
</g>
</svg>
