<svg width="16" height="16" viewBox="0 0 16 16" fill="none" xmlns="http://www.w3.org/2000/svg">
<g id="passcode-lock">
<path id="Icon" d="M14.6667 7.33331V5.46665C14.6667 4.71991 14.6667 4.34654 14.5214 4.06133C14.3936 3.81044 14.1896 3.60647 13.9387 3.47864C13.6535 3.33331 13.2801 3.33331 12.5334 3.33331H3.46671C2.71997 3.33331 2.3466 3.33331 2.06139 3.47864C1.8105 3.60647 1.60653 3.81044 1.4787 4.06133C1.33337 4.34654 1.33337 4.71991 1.33337 5.46665V7.86665C1.33337 8.61338 1.33337 8.98675 1.4787 9.27197C1.60653 9.52285 1.8105 9.72682 2.06139 9.85466C2.3466 9.99998 2.71997 9.99998 3.46671 9.99998H7.33337M8.00004 6.66665H8.00337M11.3334 6.66665H11.3367M4.66671 6.66665H4.67004M12.8334 11.3333V10.1666C12.8334 9.52231 12.311 8.99998 11.6667 8.99998C11.0224 8.99998 10.5 9.52231 10.5 10.1666V11.3333M8.16671 6.66665C8.16671 6.75869 8.09209 6.83331 8.00004 6.83331C7.90799 6.83331 7.83337 6.75869 7.83337 6.66665C7.83337 6.5746 7.90799 6.49998 8.00004 6.49998C8.09209 6.49998 8.16671 6.5746 8.16671 6.66665ZM11.5 6.66665C11.5 6.75869 11.4254 6.83331 11.3334 6.83331C11.2413 6.83331 11.1667 6.75869 11.1667 6.66665C11.1667 6.5746 11.2413 6.49998 11.3334 6.49998C11.4254 6.49998 11.5 6.5746 11.5 6.66665ZM4.83337 6.66665C4.83337 6.75869 4.75875 6.83331 4.66671 6.83331C4.57466 6.83331 4.50004 6.75869 4.50004 6.66665C4.50004 6.5746 4.57466 6.49998 4.66671 6.49998C4.75875 6.49998 4.83337 6.5746 4.83337 6.66665ZM10.4 14H12.9334C13.3067 14 13.4934 14 13.636 13.9273C13.7615 13.8634 13.8635 13.7614 13.9274 13.636C14 13.4934 14 13.3067 14 12.9333V12.4C14 12.0266 14 11.8399 13.9274 11.6973C13.8635 11.5719 13.7615 11.4699 13.636 11.406C13.4934 11.3333 13.3067 11.3333 12.9334 11.3333H10.4C10.0267 11.3333 9.83999 11.3333 9.69738 11.406C9.57194 11.4699 9.46995 11.5719 9.40604 11.6973C9.33337 11.8399 9.33337 12.0266 9.33337 12.4V12.9333C9.33337 13.3067 9.33337 13.4934 9.40604 13.636C9.46995 13.7614 9.57194 13.8634 9.69738 13.9273C9.83999 14 10.0267 14 10.4 14Z" stroke="#004EDF" stroke-width="1.5" stroke-linecap="round" stroke-linejoin="round"/>
</g>
</svg>
