<svg width="19" height="19" viewBox="0 0 19 19" fill="none" xmlns="http://www.w3.org/2000/svg">
<g id="shield-tick">
<path id="Icon" d="M7.12496 9.10421L8.70829 10.6875L12.2708 7.12504M15.8333 9.50004C15.8333 13.3859 11.5947 16.2121 10.0525 17.1118C9.87727 17.2141 9.78963 17.2652 9.66596 17.2917C9.56998 17.3123 9.42994 17.3123 9.33396 17.2917C9.21029 17.2652 9.12265 17.2141 8.94738 17.1118C7.40518 16.2121 3.16663 13.3859 3.16663 9.50004V5.71397C3.16663 5.08103 3.16663 4.76455 3.27014 4.49251C3.36159 4.25219 3.5102 4.03776 3.70311 3.86775C3.92148 3.6753 4.2178 3.56418 4.81045 3.34194L9.0552 1.75016C9.21979 1.68844 9.30208 1.65758 9.38674 1.64535C9.46183 1.63449 9.53809 1.63449 9.61318 1.64535C9.69784 1.65758 9.78013 1.68844 9.94472 1.75016L14.1895 3.34194C14.7821 3.56418 15.0784 3.6753 15.2968 3.86775C15.4897 4.03776 15.6383 4.25219 15.7298 4.49251C15.8333 4.76455 15.8333 5.08103 15.8333 5.71397V9.50004Z" stroke="#0038E2" stroke-width="2" stroke-linecap="round" stroke-linejoin="round"/>
</g>
</svg>
