<svg width="35" height="36" viewBox="0 0 35 36" fill="none" xmlns="http://www.w3.org/2000/svg">
<g id="Chield">
<path id="Vector 4" d="M16.8893 3.68848C17.3526 3.53991 17.8568 3.56463 18.3063 3.7627L27.4421 7.79004L27.5876 7.86133C28.2496 8.21934 28.6547 8.92055 28.6345 9.67285L28.6237 9.83496L27.4997 20.2432C27.3203 21.904 26.5534 23.4427 25.3434 24.584L25.0954 24.8066L18.8015 30.2012C18.0992 30.8031 17.0838 30.8412 16.3425 30.3145L16.1989 30.2012L9.90399 24.8066C8.63583 23.7196 7.80074 22.2173 7.54364 20.5742L7.50067 20.2432L6.37567 9.83496C6.28211 8.96885 6.76029 8.1416 7.55731 7.79004L16.6931 3.7627L16.8893 3.68848Z" stroke="#AF52DE" stroke-width="2" stroke-linecap="round"/>
</g>
</svg>
