<svg width="34" height="34" viewBox="0 0 34 34" fill="none" xmlns="http://www.w3.org/2000/svg">
<g id="Fire">
<path id="Subtract" d="M13.4584 14.167C13.4584 13.0457 11.967 12.7485 11.5713 13.7977C10.6141 16.3357 9.91675 18.6061 9.91675 19.8336C9.91675 23.7456 13.0881 26.9169 17.0001 26.9169C20.9121 26.9169 24.0834 23.7456 24.0834 19.8336C24.0834 18.5148 23.2784 15.9922 22.2112 13.2274C20.8287 9.64574 20.1375 7.85494 19.2842 7.75848C19.0112 7.72762 18.7133 7.78311 18.4697 7.91022C17.7084 8.30747 17.7084 10.2607 17.7084 14.167C17.7084 15.3406 16.757 16.292 15.5834 16.292C14.4098 16.292 13.4584 15.3406 13.4584 14.167Z" stroke="#2055EC" stroke-width="2"/>
</g>
</svg>
