<svg width="21" height="24" viewBox="0 0 21 24" fill="none" xmlns="http://www.w3.org/2000/svg">
<g id="Fire_alt_light">
<path id="Subtract" d="M8.3125 10.0003C8.3125 9.20875 7.39132 8.99895 7.14692 9.73957C6.55575 11.5311 6.125 13.1337 6.125 14.0002C6.125 16.7616 8.08375 19.0002 10.5 19.0002C12.9162 19.0002 14.875 16.7616 14.875 14.0002C14.875 13.0693 14.3778 11.2887 13.7186 9.33698C12.8648 6.80879 12.4378 5.54469 11.9108 5.4766C11.7421 5.45482 11.5582 5.49399 11.4077 5.58371C10.9375 5.86413 10.9375 7.24285 10.9375 10.0003C10.9375 10.8287 10.3499 11.5003 9.625 11.5003C8.90013 11.5003 8.3125 10.8287 8.3125 10.0003Z" stroke="#FF3B30"/>
</g>
</svg>
