<svg width="17" height="19" viewBox="0 0 17 19" fill="none" xmlns="http://www.w3.org/2000/svg">
<g id="Group 8">
<path id="Rectangle 5" d="M1.5 10.875C1.5 8.98938 1.5 8.04657 2.08579 7.46079C2.67157 6.875 3.61438 6.875 5.5 6.875H11.5C13.3856 6.875 14.3284 6.875 14.9142 7.46079C15.5 8.04657 15.5 8.98938 15.5 10.875V11.375C15.5 14.2034 15.5 15.6176 14.6213 16.4963C13.7426 17.375 12.3284 17.375 9.5 17.375H7.5C4.67157 17.375 3.25736 17.375 2.37868 16.4963C1.5 15.6176 1.5 14.2034 1.5 11.375V10.875Z" stroke="#0038E2" stroke-width="2"/>
<path id="Vector 5" d="M12 6V5.125C12 3.192 10.433 1.625 8.5 1.625V1.625C6.567 1.625 5 3.192 5 5.125V6" stroke="#0038E2" stroke-width="2" stroke-linecap="round"/>
<circle id="Ellipse 6" cx="8.5" cy="12.125" r="1.75" fill="#0038E2"/>
</g>
</svg>
