<svg width="16" height="16" viewBox="0 0 16 16" fill="none" xmlns="http://www.w3.org/2000/svg">
<g id="passcode-lock">
<path id="Icon" d="M14.6666 7.33337V5.46671C14.6666 4.71997 14.6666 4.3466 14.5213 4.06139C14.3935 3.8105 14.1895 3.60653 13.9386 3.4787C13.6534 3.33337 13.28 3.33337 12.5333 3.33337H3.46665C2.71991 3.33337 2.34654 3.33337 2.06133 3.4787C1.81044 3.60653 1.60647 3.8105 1.47864 4.06139C1.33331 4.3466 1.33331 4.71997 1.33331 5.46671V7.86671C1.33331 8.61344 1.33331 8.98681 1.47864 9.27203C1.60647 9.52291 1.81044 9.72689 2.06133 9.85472C2.34654 10 2.71991 10 3.46665 10H7.33331M7.99998 6.66671H8.00331M11.3333 6.66671H11.3366M4.66665 6.66671H4.66998M12.8333 11.3334V10.1667C12.8333 9.52238 12.311 9.00004 11.6666 9.00004C11.0223 9.00004 10.5 9.52238 10.5 10.1667V11.3334M8.16665 6.66671C8.16665 6.75875 8.09203 6.83337 7.99998 6.83337C7.90793 6.83337 7.83331 6.75875 7.83331 6.66671C7.83331 6.57466 7.90793 6.50004 7.99998 6.50004C8.09203 6.50004 8.16665 6.57466 8.16665 6.66671ZM11.5 6.66671C11.5 6.75875 11.4254 6.83337 11.3333 6.83337C11.2413 6.83337 11.1666 6.75875 11.1666 6.66671C11.1666 6.57466 11.2413 6.50004 11.3333 6.50004C11.4254 6.50004 11.5 6.57466 11.5 6.66671ZM4.83331 6.66671C4.83331 6.75875 4.75869 6.83337 4.66665 6.83337C4.5746 6.83337 4.49998 6.75875 4.49998 6.66671C4.49998 6.57466 4.5746 6.50004 4.66665 6.50004C4.75869 6.50004 4.83331 6.57466 4.83331 6.66671ZM10.4 14H12.9333C13.3067 14 13.4934 14 13.636 13.9274C13.7614 13.8635 13.8634 13.7615 13.9273 13.636C14 13.4934 14 13.3067 14 12.9334V12.4C14 12.0267 14 11.84 13.9273 11.6974C13.8634 11.5719 13.7614 11.47 13.636 11.406C13.4934 11.3334 13.3067 11.3334 12.9333 11.3334H10.4C10.0266 11.3334 9.83993 11.3334 9.69732 11.406C9.57188 11.47 9.46989 11.5719 9.40598 11.6974C9.33331 11.84 9.33331 12.0267 9.33331 12.4V12.9334C9.33331 13.3067 9.33331 13.4934 9.40598 13.636C9.46989 13.7615 9.57188 13.8635 9.69732 13.9274C9.83993 14 10.0266 14 10.4 14Z" stroke="#680977" stroke-width="1.5" stroke-linecap="round" stroke-linejoin="round"/>
</g>
</svg>
